<?xml version="1.0" encoding="utf-8"?>
<svg viewBox="0 0 100 100" xmlns="http://www.w3.org/2000/svg">
<path opacity="1.000000" stroke="none" d="M 80.134 57.661 C 81.417 62.508 82.295 67.018 83.139 72.107 C 79.581 79.762 74.247 82.774 66.631 82.242 C 59.175 81.721 51.603 81.49 44.191 82.284 C 33.901 83.389 25.597 80.819 19.45 70.843 C 16.78 67.844 14.184 65.337 12.489 62.261 C 11.576 60.603 12.205 57.968 12.598 55.498 C 13.328 55.268 13.6 55.317 14.685 55.747 C 21.698 62.521 27.9 68.91 34.795 75.432 C 47.545 75.467 59.599 75.37 72.218 75.306 C 78.312 73.531 78.676 68.45 76.973 64.427 C 75.944 61.998 71.68 60.006 68.766 59.835 C 59.09 59.269 49.332 59.072 39.672 59.787 C 31.955 60.357 26.254 57.756 21.807 51.283 C 18.854 47.726 15.592 44.397 13.087 40.508 C 11.915 38.69 12.208 35.79 12.148 32.937 C 12.732 32.799 13.038 32.847 13.898 32.81 C 19.277 38.308 23.974 43.831 29.089 48.863 C 31.103 50.844 34.02 52.824 36.588 52.924 C 47.795 53.363 59.025 53.128 70.246 53.099 C 75.621 53.084 77.721 49.974 77.611 44.418 C 77.5 38.809 74.624 37.04 69.9 37.069 C 59.426 37.134 48.937 36.708 38.485 37.221 C 32.224 37.527 27.415 35.829 23.917 30.235 C 20.374 25.885 16.643 21.688 13.384 17.106 C 12.125 15.336 11.938 12.692 11.466 9.968 C 27.317 9.609 42.964 9.73 59.198 10.058 C 66.351 17.886 72.914 25.506 79.895 33.405 C 85.296 41.71 83.102 49.532 80.134 57.661 M 60.067 18.874 C 47.866 12.216 35.206 17.79 22.446 16.905 C 26.437 22.191 30.432 28.875 35.315 29.729 C 45.618 31.528 56.385 30.276 68.58 30.276 C 65.348 25.871 63.103 22.81 60.067 18.874 Z" style=""></path>
</svg>