<?xml version="1.0" encoding="utf-8"?>
<svg viewBox="0 0 500 500" xmlns="http://www.w3.org/2000/svg">
  <path opacity="1.000000" stroke="none" d="M 304.508 180.273 C 299.917 190.374 291.723 195.708 280.995 196.076 C 265.363 196.612 249.688 196.579 234.054 196.089 C 223.658 195.763 215.862 190.303 211.291 180.681 C 216.859 180.269 222.021 180.187 227.182 180.213 C 230.145 180.228 232.76 180.196 233.69 176.383 C 233.929 175.401 236.252 174.333 237.629 174.316 C 250.782 174.16 263.939 174.157 277.092 174.324 C 278.339 174.339 280.556 175.722 280.629 176.61 C 280.913 180.035 283.089 180.157 285.525 180.177 C 291.852 180.228 298.18 180.244 304.508 180.273 Z" style="fill: rgb(255, 255, 255);"/>
  <path opacity="1.000000" stroke="none" d="M 280.905 153.177 C 281.759 156.191 282.344 158.995 282.906 162.16 C 280.537 166.92 276.985 168.793 271.914 168.462 C 266.95 168.138 261.908 167.994 256.973 168.488 C 250.122 169.175 244.593 167.577 240.5 161.374 C 238.722 159.509 236.994 157.95 235.865 156.037 C 235.257 155.006 235.676 153.368 235.938 151.832 C 236.424 151.689 236.605 151.719 237.327 151.987 C 241.997 156.199 246.126 160.172 250.717 164.227 C 259.206 164.249 267.232 164.189 275.634 164.149 C 279.692 163.045 279.934 159.886 278.8 157.384 C 278.115 155.874 275.276 154.635 273.336 154.529 C 266.893 154.177 260.396 154.054 253.964 154.499 C 248.826 154.853 245.03 153.236 242.069 149.211 C 240.103 146.999 237.931 144.929 236.263 142.511 C 235.483 141.38 235.678 139.577 235.638 137.803 C 236.027 137.717 236.231 137.747 236.803 137.724 C 240.385 141.143 243.512 144.577 246.918 147.706 C 248.259 148.938 250.201 150.169 251.911 150.231 C 259.373 150.504 266.85 150.358 274.321 150.34 C 277.9 150.331 279.298 148.397 279.225 144.942 C 279.151 141.454 277.236 140.354 274.091 140.372 C 267.117 140.413 260.133 140.148 253.174 140.467 C 249.005 140.657 245.803 139.601 243.474 136.123 C 241.115 133.418 238.631 130.808 236.461 127.959 C 235.623 126.858 235.498 125.214 235.184 123.52 C 245.738 123.297 256.156 123.372 266.965 123.576 C 271.728 128.444 276.098 133.182 280.746 138.094 C 284.342 143.258 282.881 148.122 280.905 153.177 M 267.544 129.058 C 259.42 124.918 250.991 128.384 242.495 127.834 C 245.152 131.121 247.812 135.277 251.063 135.808 C 257.923 136.927 265.092 136.148 273.212 136.148 C 271.06 133.409 269.565 131.506 267.544 129.058 Z" style=""/>
</svg>