<?xml version="1.0" standalone="no"?>
<!DOCTYPE svg PUBLIC "-//W3C//DTD SVG 20010904//EN"
 "http://www.w3.org/TR/2001/REC-SVG-20010904/DTD/svg10.dtd">
<svg version="1.0" xmlns="http://www.w3.org/2000/svg"
 width="48.000000pt" height="48.000000pt" viewBox="0 0 48.000000 48.000000"
 preserveAspectRatio="xMidYMid meet">

<g transform="translate(0.000000,48.000000) scale(0.100000,-0.100000)"
fill="#000000" stroke="none">
<path d="M0 240 l0 -240 240 0 240 0 0 240 0 240 -240 0 -240 0 0 -240z m358
79 c2 -16 -11 -50 -35 -90 -21 -35 -45 -77 -53 -92 -7 -15 -20 -26 -29 -25 -8
2 -38 44 -68 93 -50 85 -62 122 -46 139 4 3 57 5 117 4 111 -3 111 -3 114 -29z"/>
<path d="M160 312 c0 -5 13 -33 30 -63 l30 -54 0 63 0 62 -30 0 c-16 0 -30 -4
-30 -8z"/>
<path d="M260 258 c0 -34 1 -59 3 -57 2 2 18 30 35 62 l32 57 -35 0 -35 0 0
-62z"/>
</g>
</svg>
